<?xml version="1.0" standalone="no"?><!DOCTYPE svg PUBLIC "-//W3C//DTD SVG 1.1//EN" "http://www.w3.org/Graphics/SVG/1.1/DTD/svg11.dtd"><svg t="1777189974338" class="icon" viewBox="0 0 1024 1024" version="1.1" xmlns="http://www.w3.org/2000/svg" p-id="10660" xmlns:xlink="http://www.w3.org/1999/xlink" width="200" height="200"><path d="M514.93 911.44c-84.26 0-165.03-25.63-233.6-74.12-67.03-47.4-117.54-112.97-146.06-189.6-5.78-15.53 2.12-32.8 17.65-38.58 15.53-5.78 32.8 2.12 38.58 17.65 50.02 134.37 180 224.65 323.44 224.65s273.42-90.28 323.44-224.65c5.04-13.55 19.04-21.58 33.27-19.09 14.24 2.49 24.68 14.77 24.84 29.23l2.04 188.64c0.18 16.57-13.11 30.14-29.67 30.32h-0.33c-16.42 0-29.81-13.22-29.99-29.68l-0.81-74.98c-24.91 32.81-54.88 61.82-89.18 86.07-68.59 48.5-149.37 74.14-233.62 74.14zM868.52 411.25c-12.35 0-23.92-7.69-28.28-20-48.67-137.46-179.41-229.82-325.31-229.82-145.91 0-276.64 92.36-325.31 229.82-4.88 13.77-18.97 22.03-33.36 19.55-14.4-2.47-24.92-14.96-24.92-29.57V189.2c0-16.57 13.43-30 30-30s30 13.43 30 30v73.65l0.09-0.12a406.854 406.854 0 0 1 87.32-85.34c69.12-49.7 150.79-75.96 236.18-75.96S682 127.7 751.11 177.39a406.62 406.62 0 0 1 87.32 85.34c24.95 33.08 44.59 69.58 58.37 108.49 5.53 15.62-2.65 32.76-18.27 38.29a29.767 29.767 0 0 1-10.01 1.74z" fill="#231815" p-id="10661"></path><path d="M385.63 669.13V559.97c0-5.97-5.81-10.19-11.49-8.36-7.28 2.35-14.67 4.65-22.17 6.92-4.17 1.26-8.65-0.7-10.51-4.64-4.18-8.88-9.27-19-15.29-30.36-2.69-5.08 0.15-11.32 5.73-12.66 43.15-10.34 82.79-22.96 118.91-37.87 6.32-2.61 7.35-11.13 1.85-15.2-9.62-7.12-18.34-13.34-26.16-18.66-4.68-3.18-5.15-9.9-0.98-13.73l24.99-22.95a8.81 8.81 0 0 1 10.76-0.89 3457.73 3457.73 0 0 1 52.8 35.16c2.79 1.9 6.43 2.04 9.34 0.33 21.24-12.47 40.82-26.08 58.76-40.81 6.38-5.24 2.68-15.59-5.57-15.59H445.92c-2.45 0-4.77 1.03-6.44 2.82-21.34 22.91-45.95 44.16-73.84 63.74-3.68 2.59-8.73 1.98-11.68-1.41-6.49-7.45-14.22-16.03-23.17-25.73-3.6-3.9-2.95-10.06 1.37-13.14 44.49-31.74 79.77-68.57 105.84-110.5 1.71-2.75 4.82-4.3 8.05-4.08l42.01 2.96c6.44 0.45 10.23 7.47 7.05 13.08-2 3.53-4.06 7.03-6.17 10.49-3.57 5.83 0.69 13.32 7.53 13.32h167.89a8.79 8.79 0 0 1 8.79 8.79v35.24c0 2.09-0.73 4.11-2.09 5.7-31.35 36.6-74.05 69.73-128.1 99.41-7.96 4.37-4.84 16.48 4.24 16.48h120.29a8.79 8.79 0 0 1 8.79 8.79v161.33a8.79 8.79 0 0 1-8.79 8.79H628.8a8.79 8.79 0 0 1-8.79-8.79 8.79 8.79 0 0 0-8.79-8.79H450.67a8.79 8.79 0 0 0-8.79 8.79v1.17a8.79 8.79 0 0 1-8.79 8.79h-38.67c-4.85 0.01-8.79-3.92-8.79-8.78z m225.59-122.46H450.67a8.79 8.79 0 0 0-8.79 8.79v46.09a8.79 8.79 0 0 0 8.79 8.79h160.55a8.79 8.79 0 0 0 8.79-8.79v-46.09a8.79 8.79 0 0 0-8.79-8.79z" fill="#231815" p-id="10662"></path></svg>