<?xml version="1.0" standalone="no"?><!DOCTYPE svg PUBLIC "-//W3C//DTD SVG 1.1//EN" "http://www.w3.org/Graphics/SVG/1.1/DTD/svg11.dtd"><svg t="1777189907824" class="icon" viewBox="0 0 1040 1024" version="1.1" xmlns="http://www.w3.org/2000/svg" p-id="8786" xmlns:xlink="http://www.w3.org/1999/xlink" width="203.125" height="200"><path d="M1109.85013728-25.2463281H-53.56953093c-47.26747591 0-85.7062008 38.40895052-85.70620082 85.6142886v835.80827875c0 47.20145445 38.4387249 85.61299405 85.70620082 85.61299405h1163.41966821c47.3283192 0 85.67642643-38.40895052 85.67642643-85.61299405V60.3679605c0-47.20663262-38.34810722-85.61299405-85.67642643-85.61299407m22.24016752 921.42127282c0 12.14276898-9.97441739 22.17802967-22.24146205 22.17802967H-53.56953093c-12.23597573 0-22.27123643-10.03526068-22.27123644-22.17802967V60.3679605c0-12.14276898 10.03526068-22.17932421 22.27123644-22.17932421h1163.41966821c12.26704466 0 22.2401675 10.03655522 22.24016752 22.17932421v835.80827875z" fill="" p-id="8787"></path><path d="M395.21322983 510.60707682c46.52182187-35.55837725 77.18813899-91.06429472 77.18813897-153.8804698 0-107.04536969-87.03698615-194.14708275-194.02280706-194.14708275-106.98582092 0-194.0241016 87.10041853-194.02410161 194.14708275 0 62.81617509 30.63265911 118.32209257 77.18813898 153.88176434-103.70157733 45.22210544-176.52194418 148.55085573-176.52194418 268.8548864 0 17.46979397 14.155776 31.71748219 31.71877673 31.71748219 17.49956835 0 31.71748219-14.24768821 31.71748221-31.71748219 0-124.76371501 99.88916211-226.11311629 223.78812554-229.33263296 2.10621377 0 4.02730857 0.6187893 6.13352233 0.61878928 2.10362469 0 4.02601403-0.6187893 6.06750087-0.61878928 124.02065004 3.2234003 223.8813323 104.56891796 223.88133232 229.33263296 0 17.46979397 14.18684492 31.71748219 31.71877672 31.71748219s31.71748219-14.24768821 31.7174822-31.71748219c0.00258907-120.30403067-72.8488467-223.63278096-176.54912949-268.85618094M147.79071905 356.72919609c0-72.10966533 58.54031518-130.7134129 130.58913722-130.71341289 71.98280059 0 130.58784269 58.60374755 130.5878427 130.71341289 0 69.87658683-55.38164179 126.62137742-124.5164582 129.96646432-2.04148685-0.12427568-3.96387618-0.62008383-6.06879542-0.62008384s-4.0286031 0.49580816-6.13222778 0.62008384c-69.13999455-3.34638143-124.45949851-60.08987749-124.45949852-129.96646432M1005.21908148 220.56577707H581.05843863c-17.59277511 0-31.71748219 14.24768821-31.71748218 31.71618764 0 17.47108851 14.12341253 31.71877673 31.71748218 31.71877674H1005.21908148c17.53322635 0 31.71748219-14.24768821 31.7174822-31.71877674 0-17.46849943-14.18425584-31.71618765-31.7174822-31.71618764M1005.21908148 416.19898975H581.05843863a31.62039182 31.62039182 0 0 0-31.71748218 31.71618766c0 17.47108851 14.12341253 31.71877673 31.71748218 31.71877672H1005.21908148c17.53322635 0 31.71748219-14.24768821 31.7174822-31.71748218 0-17.59277511-14.18425584-31.71618765-31.7174822-31.71618766M1005.21908148 611.83090789H644.49340302c-17.59277511 0-31.71618765 14.12341253-31.71618765 31.71618766 0 17.47108851 14.12341253 31.71877673 31.71618765 31.71877672H1005.21908148c17.53322635 0 31.71748219-14.24768821 31.7174822-31.71877672 0-17.59018604-14.18425584-31.71618765-31.7174822-31.71618766" fill="" p-id="8788"></path></svg>