<?xml version="1.0" standalone="no"?><!DOCTYPE svg PUBLIC "-//W3C//DTD SVG 1.1//EN" "http://www.w3.org/Graphics/SVG/1.1/DTD/svg11.dtd"><svg t="1777190245357" class="icon" viewBox="0 0 1024 1024" version="1.1" xmlns="http://www.w3.org/2000/svg" p-id="21535" xmlns:xlink="http://www.w3.org/1999/xlink" width="200" height="200"><path d="M301.44 992C235.392 992 192 947.392 192 893.12V130.88C192 76.608 235.392 32 301.44 32h485.12C852.608 32 896 76.608 896 130.88v477.632c0 16.448-6.08 29.568-26.24 29.568-20.16 0-36.288-13.12-36.288-29.568V130.88c0-21.76-20.672-39.232-46.4-39.232H301.44c-25.728 0-46.4 17.472-46.4 39.232v761.728c0 21.312 21.12 39.744 46.4 39.744h485.12c25.728 0 46.4-17.92 46.4-39.744v-131.392H342.784c-20.16 0-36.288-13.12-36.288-29.568 0-16.512 16.128-29.568 36.288-29.568h526.976c20.16 0 26.24 13.056 26.24 29.568v160.96c0 54.784-43.392 99.392-109.44 99.392H301.44z m242.56-106.688c-10.112 0-19.2-3.84-26.24-10.176a33.28 33.28 0 0 1-10.56-25.216c0-19.392 16.64-35.392 36.8-35.392 20.16 0 36.8 16 36.8 35.392 0 19.392-16.64 35.392-36.8 35.392z m-44.352-321.92a25.216 25.216 0 0 1-13.12-3.392c-5.568-3.84-85.76-78.528-138.688-128a27.648 27.648 0 0 1 0-38.784 28.416 28.416 0 0 1 19.648-7.744 32 32 0 0 1 20.672 7.68l109.44 105.28 202.752-194.944a30.656 30.656 0 0 1 20.16-7.68c7.552 0 14.592 2.88 20.16 7.68a27.648 27.648 0 0 1 0 38.784L518.784 555.136a27.392 27.392 0 0 1-19.2 8.256z" fill="#2c2c2c" p-id="21536"></path></svg>