<?xml version="1.0" standalone="no"?><!DOCTYPE svg PUBLIC "-//W3C//DTD SVG 1.1//EN" "http://www.w3.org/Graphics/SVG/1.1/DTD/svg11.dtd"><svg t="1777190208128" class="icon" viewBox="0 0 1024 1024" version="1.1" xmlns="http://www.w3.org/2000/svg" p-id="20500" xmlns:xlink="http://www.w3.org/1999/xlink" width="200" height="200"><path d="M488.095851 530.618096c-127.535768 0-231.052759-103.910742-231.052759-232.155261 0-128.283894 103.398866-232.155261 231.052759-232.155261 127.535768 0 231.052759 103.910742 231.05276 232.155261s-103.516991 232.155261-231.05276 232.155261m0-530.618096a296.100333 296.100333 0 0 0-210.105236 87.412598 299.447211 299.447211 0 0 0-87.018848 211.128987c0 111.5495 61.700694 207.900233 152.145171 259.048416C177.978003 617.203818 59.222869 774.782745 59.222869 961.420455c0 11.458138 2.520003 21.971275 3.307504 33.311287h0.669376a32.287536 32.287536 0 0 0 64.260072 0h1.023751c-0.905626-11.221888-3.307504-21.85315-3.307503-33.311287 0-96.705109 38.154418-189.512088 106.233869-257.90654a362.092907 362.092907 0 0 1 256.567788-106.745745l33.035662-3.307504c148.168291-16.695019 263.852171-141.671409 263.852171-294.997831C784.826184 133.757025 652.053535 0.23625 488.095851 0m452.852384 851.918457c-1.929377-0.551251-3.858754-1.141876-5.906257-1.141877h-365.32166a24.727528 24.727528 0 0 0 0 49.455056h309.172847l-83.238844 81.939467a24.255027 24.255027 0 0 0 34.492539 34.098788l124.700765-123.362013a24.412527 24.412527 0 0 0 0-34.571289 24.294402 24.294402 0 0 0-13.89939-6.418132m-375.874172-76.781336c2.047502 0.590626 4.21313 0.787501 6.260632 0.7875h367.251037a24.018777 24.018777 0 0 0 22.5619-11.458137 24.333777 24.333777 0 0 0 0-25.396904 24.097527 24.097527 0 0 0-22.5619-11.458138h-310.865974l83.593219-83.199468a24.648778 24.648778 0 0 0 5.355006-26.893155 24.530653 24.530653 0 0 0-40.005045-8.11126l-125.133891 124.622015a24.688153 24.688153 0 0 0 0 34.807539 24.412527 24.412527 0 0 0 13.545016 6.300008" fill="#2c2c2c" p-id="20501"></path></svg>