<?xml version="1.0" standalone="no"?><!DOCTYPE svg PUBLIC "-//W3C//DTD SVG 1.1//EN" "http://www.w3.org/Graphics/SVG/1.1/DTD/svg11.dtd"><svg t="1777189838821" class="icon" viewBox="0 0 1024 1024" version="1.1" xmlns="http://www.w3.org/2000/svg" p-id="7645" xmlns:xlink="http://www.w3.org/1999/xlink" width="200" height="200"><path d="M728.064 1024a250.217412 250.217412 0 0 1-160.436706-57.825882H113.001412A67.614118 67.614118 0 0 1 45.176471 898.620235V464.655059c0-48.097882 25.178353-89.539765 78.607058-89.539765h59.602824V192.933647C183.386353 86.467765 271.781647 0 380.717176 0h177.784471c108.935529 0 197.330824 85.985882 197.330824 192.933647v77.251765c0 20.992-18.010353 38.4-39.574589 38.4-22.106353 0-39.574588-16.896-39.574588-38.4h-3.072V192.933647c0-61.921882-51.380706-112.579765-115.109647-112.579765h-177.784471c-63.728941 0-115.109647 50.657882-115.109647 112.579765v182.181647h546.213647c57.042824 0 82.221176 33.761882 82.221177 90.051765v121.735529A248.621176 248.621176 0 0 1 978.823529 774.264471C978.823529 912.444235 866.304 1024 728.064 1024z m83.757176-559.344941a8.975059 8.975059 0 0 0-8.734117-8.704H136.643765a8.975059 8.975059 0 0 0-8.734118 8.704v411.949176c0 4.608 3.584 8.704 8.734118 8.704h366.802823a247.808 247.808 0 0 1-26.142117-111.043764c0-138.179765 112.549647-249.735529 250.759529-249.73553 29.394824 0 57.584941 5.029647 83.757176 14.245647v-74.119529z m-83.757176 122.307765c-103.785412 0-187.542588 83.425882-187.542588 186.789647s83.757176 186.789647 187.542588 186.789647c103.815529 0 188.084706-83.425882 187.572706-186.789647 0-103.363765-83.757176-186.789647-187.572706-186.789647z m-30.298353 296.809411l-103.303529-102.851764 41.110588-40.929883 62.192941 61.921883 124.325647-123.843765 41.110588 40.929882-165.436235 164.773647z" fill="#1E1E1E" p-id="7646"></path></svg>